[Header]
FileType HTR
DataType HTRS
FileVersion 1
NumSegments 22
NumFrames 6
DataFrameRate 24
EulerRotationOrder ZYX
CalibrationUnits mm
RotationUnits Degrees
GlobalAxisofGravity Y
BoneLengthAxis Y
ScaleFactor 1.0
[SegmentNames&Hierarchy]
reference	GLOBAL
Hips	reference
Spine	Hips
Spine1	Spine
Neck	Spine1
Head	Neck
LeftShoulder	Spine1
LeftArm	LeftShoulder
LeftForeArm	LeftArm
LeftHand	LeftForeArm
RightShoulder	Spine1
RightArm	RightShoulder
RightForeArm	RightArm
RightHand	RightForeArm
LeftUpLeg	Hips
LeftLeg	LeftUpLeg
LeftFoot	LeftLeg
LeftToeBase	LeftFoot
RightUpLeg	Hips
RightLeg	RightUpLeg
RightFoot	RightLeg
RightToeBase	RightFoot
[BasePosition]
reference	0	0	0	0	0	0	1
Hips	0	0	0	0	0	0	1
Spine	0	0	0	0	-0	90	1
Spine1	0	0	0	0	0	0	1
Neck	0	0	0	-7.352430803	-7.352430803	90	1
Head	0	0	0	0	-0	90	1
LeftShoulder	0	0	0	0	0	0	1
LeftArm	0	0	0	0	0	0	1
LeftForeArm	0	0	0	0	0	0	1
LeftHand	0	0	0	0	0	0	1
RightShoulder	0	0	0	0	-0	180	1
RightArm	0	0	0	0	-0	180	1
RightForeArm	0	0	0	0	-0	180	1
RightHand	0	0	0	0	-0	180	1
LeftUpLeg	0	0	0	0	-0	-90	1
LeftLeg	0	0	0	0	-0	-90	1
LeftFoot	0	0	0	66.57150701	-66.57150701	-90	1
LeftToeBase	0	0	0	0	-90	0	1
RightUpLeg	0	0	0	0	-0	-90	1
RightLeg	0	0	0	0	-0	-90	1
RightFoot	0	0	0	66.57150701	-66.57150701	-90	1
RightToeBase	0	0	0	0	-90	0	1
[reference]
10	0	0	0	0	-0	0	1.0
11	0	0	0	0	-0	0	1.0
12	0	0	0	0	-0	0	1.0
13	0	0	0	0	-0	0	1.0
14	0	0	0	0	-0	0	1.0
15	0	0	0	0	-0	0	1.0
[Hips]
10	1.112269998	8.854089737	0.2035400122	2.76614666	-122.9722137	2.371323586	1.0
11	1.112269998	8.854089737	0.2035400122	2.866844416	-122.4899979	2.326737165	1.0
12	1.112269998	8.854089737	0.2035400122	2.853351116	-122.0328369	2.443437576	1.0
13	1.112269998	8.854089737	0.2092999965	2.941467285	-121.6825867	2.432067871	1.0
14	1.112269998	8.854089737	0.2473975569	2.990436316	-121.3112564	2.468345165	1.0
15	1.112269998	8.854089737	0.2866455615	2.737993717	-121.0699234	2.648429632	1.0
[Spine]
10	0	0.7478299737	0	-14.91499233	0.6308822632	-90.08213043	1.0
11	0	0.7478299737	0	-14.92253304	0.6874542236	-89.85354614	1.0
12	0	0.7478299737	0	-14.83391953	0.7942621708	-89.94802856	1.0
13	0	0.7478299737	0	-14.69816971	0.9556698203	-89.92649841	1.0
14	0	0.7478299737	0	-14.60365295	1.087309718	-89.83378601	1.0
15	0	0.7478299737	0	-14.4266777	1.306289792	-89.38449097	1.0
[Spine1]
10	0	2.049309969	0	11.42528152	0.1352749318	0.8209586143	1.0
11	0	2.049309969	0	11.6348753	0.2359321564	-0.1052479371	1.0
12	0	2.049309969	0	11.25685596	0.1787547916	0.7574772835	1.0
13	0	2.049309969	0	11.15601158	0.2580127716	0.5862839222	1.0
14	0	2.049309969	0	11.09188747	0.3037630618	0.5340735316	1.0
15	0	2.049309969	0	11.30994034	0.4124261141	-0.09486752748	1.0
[Neck]
10	0	2.231709957	0	-5.567708015	9.61310482	-85.49755859	1.0
11	0	2.231709957	0	-5.690491199	9.545737267	-85.34515381	1.0
12	0	2.231709957	0	-5.785155296	9.478286743	-85.41446686	1.0
13	0	2.231709957	0	-5.862416267	9.390585899	-85.15041351	1.0
14	0	2.231709957	0	-6.720964432	9.579648972	-84.99801636	1.0
15	0	2.231709957	0	-7.272359848	9.731719971	-84.64727783	1.0
[Head]
10	0	1.413589954	0.1823999882	-4.262505531	2.830170155	-94.69176483	1.0
11	0	1.413589954	0.1823999882	-4.215197086	2.770703554	-94.80057526	1.0
12	0	1.413589954	0.1823999882	-4.381150723	2.696985006	-94.90888977	1.0
13	0	1.413589954	0.1823999882	-4.278284073	2.667069197	-95.49363708	1.0
14	0	1.413589954	0.1823999882	-2.792807102	2.960925102	-95.96710968	1.0
15	0	1.413589954	0.1823999882	-1.96202755	3.16274929	-96.17675018	1.0
[LeftShoulder]
10	0.3649300039	1.825889945	-0.04271000251	-10.58813953	-7.232043743	1.335097313	1.0
11	0.3649300039	1.825889945	-0.04271000251	-9.98788166	-7.305186272	1.440857172	1.0
12	0.3649300039	1.825889945	-0.04271000251	-9.767457008	-7.2983675	1.03461349	1.0
13	0.3649300039	1.825889945	-0.04271000251	-9.901995659	-7.428135872	1.280888915	1.0
14	0.3649300039	1.825889945	-0.04271000251	-10.37229729	-7.381076813	1.342788458	1.0
15	0.3649300039	1.825889945	-0.04271000251	-9.848659515	-7.538629055	1.384608746	1.0
[LeftArm]
10	1.24003005	0	0	36.78904343	8.487130165	-79.30695343	1.0
11	1.24003005	0	0	36.89030457	8.003293991	-79.01228333	1.0
12	1.24003005	0	0	36.62221909	8.129055977	-79.18900299	1.0
13	1.24003005	0	0	35.97941589	8.521014214	-79.43930054	1.0
14	1.24003005	0	0	35.90260315	9.147842407	-79.59907532	1.0
15	1.24003005	0	0	35.64739609	8.8141222	-79.44957733	1.0
[LeftForeArm]
10	2.847419977	0	0	-12.71759987	-13.92820072	-2.541828156	1.0
11	2.847419977	0	0	-12.91454601	-13.96665096	-2.623254061	1.0
12	2.847419977	0	0	-12.81956768	-13.81114197	-2.752130032	1.0
13	2.847419977	0	0	-12.55683804	-13.603755	-3.111837864	1.0
14	2.847419977	0	0	-12.5340519	-13.3535738	-3.356470585	1.0
15	2.847419977	0	0	-12.60917187	-13.1919899	-3.508240938	1.0
[LeftHand]
10	2.258270025	0	0	-12.84900284	-5.445020676	-3.765081406	1.0
11	2.258270025	0	0	-13.08408451	-5.392747402	-3.221749544	1.0
12	2.258270025	0	0	-12.98475933	-5.378584385	-3.578268528	1.0
13	2.258270025	0	0	-12.76939678	-5.318964005	-3.414350033	1.0
14	2.258270025	0	0	-12.79244995	-4.98888588	-3.088541031	1.0
15	2.258270025	0	0	-12.86942387	-5.03484869	-3.302704811	1.0
[RightShoulder]
10	-0.3646599948	1.825889945	-0.04271000251	-7.438132763	9.094917297	-180.1675415	1.0
11	-0.3646599948	1.825889945	-0.04271000251	-7.445096493	9.224912643	-179.8796692	1.0
12	-0.3646599948	1.825889945	-0.04271000251	-7.508182526	9.25006485	-180.1990509	1.0
13	-0.3646599948	1.825889945	-0.04271000251	-7.566718578	9.236414909	-180.3381195	1.0
14	-0.3646599948	1.825889945	-0.04271000251	-7.631584167	9.321911812	-180.3313751	1.0
15	-0.3646599948	1.825889945	-0.04271000251	-7.651154041	9.552598953	-179.9065857	1.0
[RightArm]
10	-1.24003005	0	0	44.5182457	-3.205339432	-99.26256561	1.0
11	-1.24003005	0	0	44.60527802	-3.062269449	-99.53297424	1.0
12	-1.24003005	0	0	45.21247864	-2.912935495	-99.52851868	1.0
13	-1.24003005	0	0	45.81333542	-2.751553774	-99.61776733	1.0
14	-1.24003005	0	0	46.57486725	-2.474543571	-99.77568054	1.0
15	-1.24003005	0	0	46.67638397	-2.029549599	-100.1717758	1.0
[RightForeArm]
10	-2.847419977	0	0	2.022896767	13.93020153	179.7639923	1.0
11	-2.847419977	0	0	2.18617487	13.96780872	179.8323822	1.0
12	-2.847419977	0	0	2.170814514	14.06900597	179.7498932	1.0
13	-2.847419977	0	0	2.196956396	14.21388721	179.7061157	1.0
14	-2.847419977	0	0	2.131024122	14.29328156	179.5665588	1.0
15	-2.847419977	0	0	2.435069323	14.37940311	179.730957	1.0
[RightHand]
10	-2.258270025	0	0	2.008006573	7.817286491	-180.6372375	1.0
11	-2.258270025	0	0	2.156270742	7.771717072	-180.7397461	1.0
12	-2.258270025	0	0	2.140687227	7.84440136	-180.8874664	1.0
13	-2.258270025	0	0	2.172065735	7.84642601	-180.8898163	1.0
14	-2.258270025	0	0	2.102227211	7.881831646	-181.2045898	1.0
15	-2.258270025	0	0	2.368670464	7.874456406	-181.4530029	1.0
[LeftUpLeg]
10	0.9119900465	0	0	3.477726936	-3.538693666	90.60031128	1.0
11	0.9119900465	0	0	3.124170303	-3.682180405	90.51225281	1.0
12	0.9119900465	0	0	2.751527786	-3.701831341	90.44022369	1.0
13	0.9119900465	0	0	2.123837471	-4.305548668	90.34320068	1.0
14	0.9119900465	0	0	1.312119246	-5.053377628	90.27233887	1.0
15	0.9119900465	0	0	0.424526453	-5.61058712	90.22355652	1.0
[LeftLeg]
10	0	-4.371409893	0	0.7072708607	-6.586696625	89.3844986	1.0
11	0	-4.371409893	0	0.9434425235	-6.809576035	89.41759491	1.0
12	0	-4.371409893	0	1.313686371	-7.074378014	89.42203522	1.0
13	0	-4.371409893	0	1.971120715	-7.166479111	89.37078094	1.0
14	0	-4.371409893	0	3.002815962	-7.262680054	89.18629456	1.0
15	0	-4.371409893	0	4.495951653	-7.020630836	88.93815613	1.0
[LeftFoot]
10	0	-3.918009996	0	-81.48061371	110.4257355	-40.88061905	1.0
11	0	-3.918009996	0	-81.76234436	110.404953	-41.10369492	1.0
12	0	-3.918009996	0	-82.18421936	110.9705811	-41.56276703	1.0
13	0	-3.918009996	0	-82.01050568	111.6049423	-41.21099854	1.0
14	0	-3.918009996	0	-81.62129211	112.0401382	-40.44529343	1.0
15	0	-3.918009996	0	-82.05536652	112.2670898	-40.41163635	1.0
[LeftToeBase]
10	0	-0.5927900076	1.367989898	0	0	0	1.0
11	0	-0.5927900076	1.367989898	0	0	0	1.0
12	0	-0.5927900076	1.367989898	0	0	0	1.0
13	0	-0.5927900076	1.367989898	0	0	0	1.0
14	0	-0.5927900076	1.367989898	0	0	0	1.0
15	0	-0.5927900076	1.367989898	0	0	0	1.0
[RightUpLeg]
10	-0.9119900465	0	0	2.200572968	1.657166958	94.07514954	1.0
11	-0.9119900465	0	0	1.9958148	1.33717525	93.98081207	1.0
12	-0.9119900465	0	0	1.743234396	0.6432995796	93.91481018	1.0
13	-0.9119900465	0	0	1.2631284	-0.04314551502	93.79391479	1.0
14	-0.9119900465	0	0	0.6529306173	-0.9878598452	93.70983124	1.0
15	-0.9119900465	0	0	-0.05708237737	-1.643839836	93.64952087	1.0
[RightLeg]
10	0	-4.371409893	0	0.7516242862	1.153473854	90.77580261	1.0
11	0	-4.371409893	0	0.8501083255	1.092856288	90.86003113	1.0
12	0	-4.371409893	0	1.177042365	0.9933518171	90.86392975	1.0
13	0	-4.371409893	0	1.722889543	1.135694504	90.92558289	1.0
14	0	-4.371409893	0	2.462015629	1.495986342	90.85083771	1.0
15	0	-4.371409893	0	3.643311024	1.765978813	90.72355652	1.0
[RightFoot]
10	0	-3.918009996	0	31.95251083	59.8026123	63.78480911	1.0
11	0	-3.918009996	0	31.84381866	59.6889801	63.68162918	1.0
12	0	-3.918009996	0	32.63111496	59.76092529	64.63270569	1.0
13	0	-3.918009996	0	33.18359375	59.64378738	65.39463043	1.0
14	0	-3.918009996	0	33.8474884	59.51697159	66.33073425	1.0
15	0	-3.918009996	0	34.84272003	59.16504288	67.71414185	1.0
[RightToeBase]
10	0	-0.5927900076	1.367989898	0	0	0	1.0
11	0	-0.5927900076	1.367989898	0	0	0	1.0
12	0	-0.5927900076	1.367989898	0	0	0	1.0
13	0	-0.5927900076	1.367989898	0	0	0	1.0
14	0	-0.5927900076	1.367989898	0	0	0	1.0
15	0	-0.5927900076	1.367989898	0	0	0	1.0
[EndOfFile]
